# xmcd
#
# Track frame offsets:
#	150
#	17029
#	34415
#	49790
#	66325
#	86971
#	102170
#	117374
#	135492
#	147902
#	162935
#	178795
#
# Disc length: 2603
#
# Revision: 2
# Processed by: cddbd v1.5.1PL0 Copyright (c) Steve Scherf et al.
# Submitted via: audiograbber 1.82.02
# Normalized: r1:DSETVAR1
#
DISCID=ab0a290c
DTITLE=Various Artist - Nu Country Traxx Vol 10
DYEAR=2000
DGENRE=Country
TTITLE0=Joanie Keller - Three Little Tear Drops
TTITLE1=Clint Black - Been There
TTITLE2=Braig Morgan - Something To Write Home About
TTITLE3=Redmon and Vale - In The Name of Love
TTITLE4=Alan Jackson - Blues Man, the
TTITLE5=Randy Travis - Where Can I Surrender
TTITLE6=Damon Gray - Lookin' For Trouble
TTITLE7=Clay Davidson - Unconditional
TTITLE8=Crystal Gayle and Willie Nelson - Two Sleepy People
TTITLE9=Brad Paisley - Me Neither
TTITLE10=Eric Heatherly - Flowers On The Wall
TTITLE11=Collin Raye - Couldn't Last A Moment
EXTD=
EXTT0=
EXTT1=
EXTT2=
EXTT3=
EXTT4=
EXTT5=
EXTT6=
EXTT7=
EXTT8=
EXTT9=
EXTT10=
EXTT11=
PLAYORDER=
